<?xml version="1.0" encoding="UTF-8" standalone="no"?>
<!-- Created with Inkscape (http://www.inkscape.org/) -->

<svg
   width="16"
   height="16"
   viewBox="0 0 4.2333332 4.2333333"
   version="1.1"
   id="svg1"
   sodipodi:docname="error.svg"
   inkscape:version="1.4.4 (dcaf3e7d9e, 2026-05-05)"
   xmlns:inkscape="http://www.inkscape.org/namespaces/inkscape"
   xmlns:sodipodi="http://sodipodi.sourceforge.net/DTD/sodipodi-0.dtd"
   xmlns="http://www.w3.org/2000/svg"
   xmlns:svg="http://www.w3.org/2000/svg">
  <sodipodi:namedview
     id="namedview1"
     pagecolor="#505050"
     bordercolor="#eeeeee"
     borderopacity="1"
     inkscape:showpageshadow="0"
     inkscape:pageopacity="0"
     inkscape:pagecheckerboard="0"
     inkscape:deskcolor="#505050"
     inkscape:document-units="px"
     inkscape:zoom="32"
     inkscape:cx="6.71875"
     inkscape:cy="5.765625"
     inkscape:window-width="1874"
     inkscape:window-height="1011"
     inkscape:window-x="46"
     inkscape:window-y="32"
     inkscape:window-maximized="1"
     inkscape:current-layer="g10" />
  <defs
     id="defs1" />
  <g
     inkscape:label="Layer 1"
     inkscape:groupmode="layer"
     id="layer1">
    <g
       id="g10"
       transform="matrix(1.0965213,0,0,1.0965213,-0.18244342,-0.27093314)">
      <g
         id="g11">
        <path
           style="opacity:0.5;fill:none;stroke:#9ba9a9;stroke-width:0.174649;stroke-linecap:round;stroke-linejoin:round;stroke-dasharray:none;stroke-opacity:1"
           d="M 2.0029417,0.49574681 0.35890004,3.7838301 c -0.0473584,0.1129226 0,0.1812079 0.0854355,0.1812079 H 3.6686918 C 3.833856,3.9606531 3.8957271,3.8183859 3.8240623,3.683089 L 2.2314705,0.49790448 C 2.1558242,0.34140165 2.0635446,0.36730625 2.0029417,0.49574681 Z"
           id="path4"
           sodipodi:nodetypes="ccccccc" />
        <g
           id="g9"
           transform="translate(-0.01993899)">
          <g
             id="path5"
             style="opacity:0.5;fill:#9ba9a9;fill-opacity:1"
             transform="matrix(0.87324595,0,0,0.87324595,0.26829608,0.26829686)">
            <path
               style="baseline-shift:baseline;display:inline;overflow:visible;vector-effect:none;fill:#9ba9a9;stroke-linecap:round;enable-background:accumulate;stop-color:#000000;stop-opacity:1;fill-opacity:1"
               d="M 2.1166667,0.8140946 V 3.0042252"
               id="path8" />
            <path
               id="path9"
               style="baseline-shift:baseline;display:inline;overflow:visible;vector-effect:none;fill:#9ba9a9;fill-opacity:1;stroke-linecap:round;enable-background:accumulate;stop-color:#000000;stop-opacity:1"
               d="m 2.1166666,0.71416828 c -0.00155,3.0269e-4 -0.0031,6.4721e-4 -0.00465,0.001034 -0.00915,4.8309e-4 -0.018194,0.002222 -0.026872,0.005168 -0.00138,4.8355e-4 -0.00276,0.001 -0.00413,0.00155 -0.00992,0.003848 -0.01917,0.009256 -0.027389,0.0160197 -0.1153802,0.0866573 -0.1963242,0.39765272 -0.1963705,0.75447582 6.43e-5,0.6242508 0.1522927,0.524498 0.160197,1.5115356 3.765e-4,0.047014 0.044713,0.09959 0.099735,0.099736 0.055022,-1.453e-4 0.099485,-0.052721 0.099735,-0.099736 C 2.2222372,2.0043179 2.3759014,2.1460198 2.3760855,1.4924153 2.3758681,1.1521612 2.3019805,0.85179624 2.1936677,0.75085855 c -0.00302,-0.003674 -0.0063,-0.007128 -0.00982,-0.0103353 -0.010063,-0.008985 -0.021841,-0.0158401 -0.034623,-0.0201538 -0.00884,-0.002993 -0.018063,-0.004732 -0.027388,-0.005168 -0.00172,-3.961e-4 -0.00344,-7.4063e-4 -0.00517,-0.001033 z"
               sodipodi:nodetypes="ccccccscscccccc" />
          </g>
          <circle
             id="path6"
             style="opacity:0.5;vector-effect:none;fill:#9ba9a9;fill-opacity:1;stroke:none;stroke-width:0.15757;stroke-linecap:round;stop-color:#000000;stop-opacity:1"
             cx="2.1166666"
             cy="3.5082612"
             r="0.17866178" />
        </g>
      </g>
    </g>
  </g>
</svg>
